<svg xmlns="http://www.w3.org/2000/svg" viewBox="0 0 226.92 226.92"><defs><style>.cls-1,.cls-2{fill:#fff;}.cls-1{stroke:#000;stroke-width:9px;}.cls-1,.cls-3{stroke-miterlimit:10;}.cls-3{stroke:#fff;}</style></defs><g id="Layer_2" data-name="Layer 2"><g id="Layer_22" data-name="Layer 22"><circle class="cls-1" cx="113.46" cy="113.46" r="108.96"/><path d="M55.55,75.78c-1.75-4.24-7.64-18.27-12.49-26.22a2,2,0,0,1,.9-2.88l2-.92a2,2,0,0,1,2.69,1.08c2.44,6,9.87,23.85,12.23,24.69s28.84.85,36.41.82a2,2,0,0,1,2,2V75a2,2,0,0,1-2,2H57.41A2,2,0,0,1,55.55,75.78Z"/><path d="M74.48,129,57.3,78.9a1,1,0,0,1,.91-1.27h5.08a1,1,0,0,1,.91.65l16.42,49.16c.18.54,1.2,3.27.64,3.39l-5.55,2.84C75.23,133.77,74.64,129.43,74.48,129Z"/><path d="M99.48,124.56l-.25,0c-1.88.34-24.56,4.44-29.89,7.3S59.06,148.28,68,154.26a4.47,4.47,0,0,0,.93.46l4.53,1.69a4.73,4.73,0,0,0,1.66.3h63.19l.36,0c1.89.14,19.43,1.15,25.45-11.54,6.3-13.27-2-30.39-20.26-30.89a4.8,4.8,0,0,0-1.2.13Z"/><path class="cls-2" d="M75.14,135.77l70.45-15.49a3.66,3.66,0,0,1,1.58,0c2.84.59,11.83,3.26,13,13.4,1.36,12.06-9.22,16.27-13.82,16.4l-71.14.67a3.77,3.77,0,0,1-2-.54c-2.52-1.52-8.21-6.15.26-13.58A3.82,3.82,0,0,1,75.14,135.77Z"/><circle cx="144.8" cy="136.16" r="16.93"/><circle class="cls-2" cx="146.02" cy="136.13" r="10.27"/><circle cx="146.02" cy="136.16" r="6.93"/><rect class="cls-3" x="139.91" y="134.48" width="4.19" height="30.73" rx="2.09" transform="matrix(0.96, 0.26, -0.26, 0.96, 44.43, -32.09)"/><rect class="cls-3" x="127.49" y="163.81" width="13.65" height="4.68" rx="2.34" transform="translate(48.45 -29.49) rotate(15.26)"/><path d="M69.54,155.63,73,156.91a1.25,1.25,0,0,1,.75,1.53l-3.35,10.71a1.24,1.24,0,0,1-1.18.88H64.79a1.25,1.25,0,0,1-1.17-1.67l4.31-12A1.25,1.25,0,0,1,69.54,155.63Z"/><path d="M158.6,153l-3.08,2.05a1.23,1.23,0,0,0-.33,1.75l8.92,12.66a1.24,1.24,0,0,0,1,.53h4.78a1.25,1.25,0,0,0,1-2l-10.61-14.7A1.24,1.24,0,0,0,158.6,153Z"/><path d="M145.45,92c.34-.41,2.25-2.47,6.68-1.84a.57.57,0,0,1,.45.77l-8.68,21.79a.57.57,0,0,1-.43.35l-5.84,1a.56.56,0,0,1-.63-.76l8.37-21.19A1.09,1.09,0,0,1,145.45,92Z"/><path d="M161.41,82.72c-.23-3.54-5.56-6.07-11.9-5.65l-.41,0h0c-5.78.31-11.29,4.14-13.84,6.19a6.57,6.57,0,0,0-1.5,1.27h0a3.35,3.35,0,0,0-.86,2.35c.15,2.12,2.66,3.75,6,4.17H139a14.17,14.17,0,0,0,2.62.06c2.79,0,4.06-2.42,12.57-1.86a4,4,0,0,0,1.59-.51h0C159.28,87.45,161.57,85.17,161.41,82.72Z"/><rect x="45.89" y="170.74" width="140.27" height="4.7" rx="2.35"/></g></g></svg>