<svg xmlns="http://www.w3.org/2000/svg" viewBox="0 0 226.92 226.92"><defs><style>.cls-1,.cls-2{fill:#fff;}.cls-1{stroke:#000;stroke-miterlimit:10;stroke-width:9px;}</style></defs><g id="Layer_2" data-name="Layer 2"><g id="Layer_30" data-name="Layer 30"><circle class="cls-1" cx="113.46" cy="113.46" r="108.96"/><path d="M175,62.2c-2.88,1.76-2.56,9.6-2.56,9.6-.32,3-22.88,39.68-22.88,39.68-16.48,25-33.92,36.64-33.92,36.64-22.56-14.88-59.2-79.2-59.2-79.2C55.31,55.8,51,55.8,51,55.8c-4.8,4,3.52,14.08,3.52,14.08l.59,1.67s27.57,126.5,56.37,109.53a3.49,3.49,0,0,0,2-.32,14.21,14.21,0,0,0,6.2,2.32v.06h.72a9.52,9.52,0,0,0,1.85-.12,36,36,0,0,0,5.89-1,17.33,17.33,0,0,0,3.67-1.25l.08,0h0a60.42,60.42,0,0,0,10-6.34c9.28-6.88,21.76-49.12,21.6-55.36s9.44-40.16,9.44-40.16c0-4.8,3.52-9.28,3.52-9.28C179.31,62.36,175,62.2,175,62.2Z"/><path class="cls-2" d="M176.31,63.8s-1.72-.72-2,7.4C174.27,71.2,177.83,66.64,176.31,63.8Z"/><path class="cls-2" d="M55.55,66.92s-4.88-6.56-3.36-9.64C52.19,57.28,53.83,58.4,55.55,66.92Z"/><path class="cls-2" d="M78.67,142.84s20.8,23.36,59.52,28.48C138.19,171.32,107.31,168.44,78.67,142.84Z"/><path class="cls-2" d="M115.63,148.12s25.52,20.48,31.52,17.2c0,0-5.13,3.23-31.08-17.5Z"/><path class="cls-2" d="M113.5,180.76s-13.37-12.88-21.17-26.68c0,0,10.62,18.34,20.79,26.84A2.61,2.61,0,0,0,113.5,180.76Z"/><path class="cls-2" d="M162.62,121.2s-7.82,37.12-24.43,38.64C138.19,159.84,151.74,160.64,162.62,121.2Z"/></g></g></svg>