<svg xmlns="http://www.w3.org/2000/svg" viewBox="0 0 226.92 226.92"><defs><style>.cls-1,.cls-2{fill:#fff;}.cls-1{stroke:#000;stroke-miterlimit:10;stroke-width:9px;}</style></defs><g id="Layer_2" data-name="Layer 2"><g id="Layer_22" data-name="Layer 22"><circle class="cls-1" cx="113.46" cy="113.46" r="108.96"/><path d="M185.82,102.31c0-.12,0-.24,0-.36,0-18.54-11.37-34.13-26.8-38.64a42.21,42.21,0,0,0-45.68,9.82,42.25,42.25,0,0,0-52.21-6.59A36.32,36.32,0,0,0,53.4,72.6a42.24,42.24,0,0,0-5.17,53.85C56.17,142,74,164.74,113.83,188.24l0-8h0l0,8c72-42.43,72-82.28,72-82.28h-.14c.08-1.1.14-2.2.14-3.32C185.83,102.52,185.82,102.42,185.82,102.31Z"/><path class="cls-2" d="M74.91,129.6v-23h4.78v8.79h9v-8.79h4.78v23H88.65V119.32h-9V129.6Z"/><path class="cls-2" d="M108.85,129.6h-4.78v-23h4.78Z"/><path class="cls-2" d="M124.15,129.6h-4.79v-23h4.79Z"/><path class="cls-2" d="M151.79,106.56v4.08H144.9v19h-4.85v-19h-6.92v-4.08Z"/><polygon points="58.87 129.21 52.03 129.21 53.23 131.17 58.57 131.17 60.19 130.19 58.87 129.21"/><polygon points="56.65 131.2 53.23 131.17 56.5 130.5 56.65 131.2"/><path d="M56.14,131.19l.93-.26.14.27Z"/></g></g></svg>