<svg xmlns="http://www.w3.org/2000/svg" viewBox="0 0 226.92 226.92"><defs><style>.cls-1,.cls-2{fill:#fff;}.cls-1{stroke:#000;stroke-miterlimit:10;stroke-width:9px;}.cls-3{fill-rule:evenodd;}</style></defs><g id="Layer_2" data-name="Layer 2"><g id="Layer_30" data-name="Layer 30"><circle class="cls-1" cx="113.46" cy="113.46" r="108.96"/><path class="cls-2" d="M174.43,63.8s-1.72-.72-2,7.4C172.39,71.2,176,66.64,174.43,63.8Z"/></g><g id="Layer_33" data-name="Layer 33"><path class="cls-3" d="M172.06,151.74a1.49,1.49,0,0,0-1.13-.4c-.77,0-1.54.11-2.32.16a5.23,5.23,0,0,1-.56,0c-.41,0-.81-.09-1.22-.09s-1.1,0-1.73.08a1.85,1.85,0,0,0-.4-2.23,18,18,0,0,0-2-2.14,3.41,3.41,0,0,0-1.41-.73,16.72,16.72,0,0,0-4-.41,20.63,20.63,0,0,1-3.93-.3,2.74,2.74,0,0,0-1.65.18,13.89,13.89,0,0,0-2,1.1c-1.16.83-1.14.88-2.43.22-2.65-1.35-5.29-2.74-7.94-4.11a89.44,89.44,0,0,1-9.14-5.52c-1.34-.91-2.64-1.88-4-2.76a19.5,19.5,0,0,0-5-2.49,2,2,0,0,1-1.47-1.4,92.59,92.59,0,0,0-3.89-8.63c-.26-.49-.54-1-.81-1.46l0,.1,0-.1c-2.92-17.75-15.53-32-15.53-32a4.91,4.91,0,0,1-.43-1.55,15.94,15.94,0,0,1-.2-7.14,29.79,29.79,0,0,1,2.28-6.95c.13-.3.37-.38.63-.49,1.88-.72,3.82-1.23,5.74-1.79a9.38,9.38,0,0,0,1.91-.79,2.18,2.18,0,0,0,.81-3.35,3.75,3.75,0,0,1-.24-.36c.93-1.26,1-1.45.2-2.35a.42.42,0,0,1,0-.12c.62-.87.58-1.31-.16-2-.21-.21-.4-.43-.58-.61.47-.59.94-1.09,1.33-1.66a1.43,1.43,0,0,0-.25-2,10.11,10.11,0,0,0-1.43-1c-.88-.56-1.76-1.11-2.65-1.63a1.24,1.24,0,0,1-.65-1.28,4.65,4.65,0,0,0-.82-3.08l-.85-1.14h0a19,19,0,0,0-7.81-6.25h0a14.69,14.69,0,0,0-8.65-1.23l-.37.08a18.78,18.78,0,0,0-2.69.86l-.44.19h0c-6.77,3.18-10.61,12.3-7.59,20.37l0-.06,0,.12A18.32,18.32,0,0,0,84,72.23,11.72,11.72,0,0,1,84.49,75c.05-.17.11-.34.16-.52,0,.32-.09.64-.13,1a17.63,17.63,0,0,1-.21,3.83c.08-.19.17-.38.26-.57a18.61,18.61,0,0,1-1.33,4.59l-.45.94-.18.4,0,.08c-.62,1.3-1.26,2.6-1.87,3.91a46.47,46.47,0,0,0-2.12,4.73A23,23,0,0,0,77.21,101a37.18,37.18,0,0,0,.22,5.06,46.73,46.73,0,0,0,2.32,9.21s8.12,13.1-2.41,35.76c0,0-.22.51-.56,1.4a36.39,36.39,0,0,0-1.1,4c-2.13,8.38-4.19,23.73,8.42,26.08h0l.64.14h0a17.26,17.26,0,0,0,3.13.37,64.66,64.66,0,0,0,9.44-.12c2-.24,4-.39,6-.61,1.44-.16,2.86-.42,4.3-.56,1.74-.16,3.48-.22,5.23-.35,0,0,5-.83,11.69-2.33.77,2.11,4.71,2.76,8.09.94h0c3.16-1.71,4.13-1.85,4.25-1.86,4.51-.31,12.48.33,14.51-4.63.64-1.58.6-2.62.17-3.3L152,170q1.13-.63,2.1-1.29a9.17,9.17,0,0,0,3.37-7.49,1,1,0,0,1,0-.24c.5,0,.95.13,1.4.15a11.06,11.06,0,0,0,1.41,0c.57-.05.68-.18.73-.78a1.66,1.66,0,0,1,.05-.26,6,6,0,0,0,.74,0c.59-.07.79-.47.43-.95a2.2,2.2,0,0,0-.74-.61,3,3,0,0,0-1-.3c-.87-.11-1.75-.2-2.64-.24a1,1,0,0,1-.81-.4c-.68-.75-1.41-1.46-2.11-2.18l-.28-.31.55.12a7.32,7.32,0,0,0,2.41.42c1-.07,2.11-.11,3.16-.19s2.4-.25,3.6-.32a8.68,8.68,0,0,0,2.59-.49,23.53,23.53,0,0,1,3.75-1.24,5.28,5.28,0,0,0,1.2-.45C172.51,152.63,172.55,152.18,172.06,151.74ZM116.29,128l.08.49-.08-.49-.14-.88Zm-.23-1.39-.17-1C116,126,116,126.31,116.06,126.63Zm-.23-1.43q-.09-.49-.18-1.08Zm-.44-2.67-.16-.93C115.28,121.87,115.33,122.18,115.39,122.53Zm-.18-1.06-.06-.37Zm-4.66,35.68c.26-10,0-13.49,0-13.49h0c.62.5,1.25,1,1.91,1.44,3.85,2.56,7.81,4.93,11.83,7.19,1,.56,2,1.1,3,1.65l.2.14,0,.18C119.26,155.79,113.69,156.68,110.55,157.15ZM138,151.73l-3.22-2.1.05-.09,4.32,1.12Zm24.36-.25c-.39-.07-.81-.12-1.22-.22-.85-.22-1.69-.47-2.55-.67A.76.76,0,0,1,158,150c-.08-.28-.21-.56-.37-1l4.25-.13C162.18,149.67,163.07,150.35,162.34,151.48Z"/></g></g></svg>