<svg xmlns="http://www.w3.org/2000/svg" viewBox="0 0 226.92 226.92"><defs><style>.cls-1,.cls-3{fill:#fff;}.cls-1{stroke:#000;stroke-width:9px;}.cls-1,.cls-2{stroke-miterlimit:10;}.cls-2{fill:none;stroke:#fff;stroke-width:2px;}</style></defs><g id="Layer_2" data-name="Layer 2"><g id="Layer_22" data-name="Layer 22"><circle class="cls-1" cx="113.46" cy="113.46" r="108.96"/><circle cx="113.46" cy="113.46" r="56.93"/><path class="cls-2" d="M64.67,85.48s42,3.59,64.35-26.4"/><path class="cls-2" d="M58.44,111.91s64.81,1.55,91.45-40.86"/><path class="cls-2" d="M66.09,137s61.81,2.24,97.48-45.18"/><path class="cls-2" d="M86.45,159.11s52.52-4.44,81.92-45.65"/><path class="cls-3" d="M64.94,84.6l.37-.08-.84-.06,0,0,0,.07,0,0h0c-.23.38-.9,1.51-1,1.79,0,0,2.58.2,2.71.16A11,11,0,0,0,64.94,84.6Z"/><path class="cls-3" d="M128.22,58.47l-.32.42,1.78,1,.61-.8S128.58,58.54,128.22,58.47Z"/><path class="cls-3" d="M59,112.91l-2.43,0s0-1.63.06-2.12a30.27,30.27,0,0,0,3.09.14C60.75,110.86,59,112.91,59,112.91Z"/><path class="cls-3" d="M151.15,70.79a27.06,27.06,0,0,1-2.49,3.88l-.24-3.19,1.25-2S150.32,70.05,151.15,70.79Z"/><path class="cls-3" d="M61,135.65s10.65,1.09,19.19,0l-.76,1.26s-11.82,1.8-17.49.84C62,137.75,61.44,136.67,61,135.65Z"/><path class="cls-3" d="M164.71,88.64l-4.46,5.87,2,.44,3.44-4.06S165,89.25,164.71,88.64Z"/><path class="cls-3" d="M88.66,159.84l-7,.84a32.39,32.39,0,0,1-2.74-2l9.75-.86Z"/><path class="cls-3" d="M169.17,114.07l1.22-1.94s-.11-2.53-.22-3.69a47.47,47.47,0,0,1-4.12,6.48Z"/></g></g></svg>