<svg xmlns="http://www.w3.org/2000/svg" viewBox="0 0 226.92 226.92"><defs><style>.cls-1{fill:#fff;stroke:#000;stroke-miterlimit:10;stroke-width:9px;}</style></defs><g id="Layer_2" data-name="Layer 2"><g id="Layer_22" data-name="Layer 22"><circle class="cls-1" cx="113.46" cy="113.46" r="108.96"/><path d="M56,153.74c3.84,3.59,21.43,19.53,36.59,24.79A2,2,0,0,1,93.88,181c-.89,3-2.91,8.75-5.79,9.74C84.43,192,51.51,169,46.38,162.06a2,2,0,0,1,0-2.35c1.28-1.78,4.23-5.41,7.72-6.45A2,2,0,0,1,56,153.74Z"/><path d="M52.82,152.44a7.09,7.09,0,0,0-4.08,3.37s-1.86-11.87,12.34-18.28,34.58-7.33,44.36-16.76c0,0,3.49,0,2.8,3.26,0,0-10,8.38-32.95,12.57S52.82,152.44,52.82,152.44Z"/><path d="M94.11,183.63a7.15,7.15,0,0,1-2.5,4.67s12-.55,15.45-15.75.28-35.34,7.57-46.81c0,0-.7-3.42-3.75-2.09,0,0-6.22,11.49-5.74,34.8S94.11,183.63,94.11,183.63Z"/><path d="M107.64,120.44a16.82,16.82,0,0,1,6.38,3.47,2.13,2.13,0,0,0,3.23-.37c3.12-4.68,10.14-15.06,13.62-19.06a2.12,2.12,0,0,0,.15-2.59c-1.2-1.71-3.83-4.39-9-5.36a2.15,2.15,0,0,0-2.17.92c-2.35,3.55-9.61,14.51-13.3,19.72A2.13,2.13,0,0,0,107.64,120.44Z"/><path d="M133.81,49.56c4,1.57,22.15,9,31.32,18.06a1.75,1.75,0,0,0,2.3.11c2-1.62,5.65-4.9,5.42-7.27-.3-3-29-19.06-36-20.47a1.71,1.71,0,0,0-1.78.77c-.91,1.48-2.66,4.76-2.26,7.59A1.58,1.58,0,0,0,133.81,49.56Z"/><path d="M131.72,47.69a5.33,5.33,0,0,1,1.17-4s-9.64,2.51-9.65,14.7,6.25,27,2.43,37c0,0,1.2,2.49,3.43.94,0,0,2.94-9.85-1.71-27.55S131.72,47.69,131.72,47.69Z"/><path d="M169.51,67a5.69,5.69,0,0,0,2.69-3.29s3.69,8.74-6.67,16.1-26.73,11.63-32.94,20.53c0,0-2.84.61-2.87-2,0,0,6.59-8.14,24.45-15.34S169.51,67,169.51,67Z"/></g></g></svg>