<svg xmlns="http://www.w3.org/2000/svg" width="166.595" height="166.595" viewBox="0 0 166.595 166.595">
  <path id="ic_brightness_high_24px" d="M142.907,59.61V25.068H108.366L83.988.69,59.61,25.068H25.068V59.61L.69,83.988l24.378,24.378v34.542H59.61l24.378,24.378,24.378-24.378h34.542V108.366l24.378-24.378Zm-58.92,68.568a44.19,44.19,0,1,1,44.19-44.19A44.225,44.225,0,0,1,83.988,128.178Zm0-73.65a29.46,29.46,0,1,0,29.46,29.46A29.452,29.452,0,0,0,83.988,54.528Z" transform="translate(-0.69 -0.69)" fill="#636363"/>
</svg>
