<svg xmlns="http://www.w3.org/2000/svg" viewBox="0 0 226.92 226.92"><defs><style>.cls-1,.cls-3{fill:#fff;}.cls-1,.cls-4{stroke:#000;}.cls-1{stroke-miterlimit:10;stroke-width:9px;}.cls-2,.cls-4{fill:none;stroke-linejoin:round;}.cls-2{stroke:#fff;stroke-width:7px;}.cls-4{stroke-width:2px;}</style></defs><g id="Layer_2" data-name="Layer 2"><g id="Layer_22" data-name="Layer 22"><circle class="cls-1" cx="113.46" cy="113.46" r="108.96"/><path d="M187.62,96.38c0-.12,0-.23,0-.35,0-18.55-11.37-34.13-26.8-38.65a42.21,42.21,0,0,0-45.68,9.82,42.25,42.25,0,0,0-52.21-6.59,36.32,36.32,0,0,0-7.74,6.06A42.24,42.24,0,0,0,50,120.52c7.94,15.59,25.72,38.29,65.6,61.79l0-8h0l0,8c72-42.43,72-82.27,72-82.27l-.14,0c.08-1.1.14-2.2.14-3.32C187.63,96.59,187.62,96.49,187.62,96.38Z"/><polyline class="cls-2" points="52.27 120.52 80.67 120.52 87.33 131.03 101.61 97.43 113.75 120.47 118.98 108.23 126.6 131.03 139.69 97.43 147.78 120.47 169.99 120.47"/><circle class="cls-3" cx="166.81" cy="120.41" r="5.7"/><polyline class="cls-4" points="53.95 120.52 80.41 120.52 87.13 131.03 101.53 97.43 113.77 120.47 119.05 108.23 126.73 131.03 139.93 97.43 148.09 120.47 170.49 120.47"/><circle cx="166.81" cy="120.41" r="3.79"/><path class="cls-3" d="M52.27,117h-4.4A18.29,18.29,0,0,0,49,119c.55,1,1.22,2.09,1.79,3.09.25.57,1.06,1.86,1.12,2h1.25l0-1.67Z"/><polygon points="56.17 119.53 49.33 119.53 50.53 121.49 55.87 121.49 57.49 120.51 56.17 119.53"/><polygon points="53.95 121.52 50.53 121.49 53.8 120.82 53.95 121.52"/><path d="M53.44,121.51l.93-.26.14.27Z"/></g></g></svg>