<svg xmlns="http://www.w3.org/2000/svg" viewBox="0 0 226.92 226.92"><defs><style>.cls-1,.cls-2{fill:#fff;}.cls-1{stroke:#000;stroke-width:9px;}.cls-1,.cls-3{stroke-miterlimit:10;}.cls-3{stroke:#fff;}</style></defs><g id="Layer_2" data-name="Layer 2"><g id="Layer_22" data-name="Layer 22"><circle class="cls-1" cx="113.46" cy="113.46" r="108.96"/><circle cx="101.74" cy="103.47" r="55.57"/><circle class="cls-2" cx="101.74" cy="103.47" r="48.63"/><rect x="93.18" y="80.15" width="6.69" height="39.32" rx="3.35"/><rect x="93.14" y="110.75" width="31.14" height="5.43" rx="2.71" transform="matrix(0.97, -0.26, 0.26, 0.97, -25.45, 31.66)"/><path class="cls-3" d="M177.45,168.53a7.84,7.84,0,0,1-1.6-2.1,65,65,0,0,1-4-8.42c-1.26-3.11-2.88-8.89-5.24-10.91a61.87,61.87,0,0,1-5-5c-.75-.78-3.28-5.94-3.92-7.12s-1.41-6.27-2.67-9.24-3.58-8.67-3.52-9,2.71-5.15,1.76-8.52a13.76,13.76,0,0,0-4.78-6.92,21.76,21.76,0,0,1-2.71-2.5,12.24,12.24,0,0,0,1.15-.78,6.2,6.2,0,0,0,1.79-1.64c.52-.81,1.09-2.42,1.73-3a83.05,83.05,0,0,0,6.42-5.75,40.81,40.81,0,0,0,3.86-5.18c.78-1.34,2.13-2.42,2.13-3.17a2.36,2.36,0,0,0-.09-.43,6.76,6.76,0,0,0-.81-1.53l0-.09,0,0c-.28-.38-.55-.69-.71-.88a3.89,3.89,0,0,0-.7-.63l-.39-.28c-.71-.62-1.44-1.22-2.2-1.79-.55-.45-1.15-.89-1.75-1.3a80.61,80.61,0,0,0-11.72-6.76l-1.27-.47a4.09,4.09,0,0,1-.71-.26l-2.59-1a10.93,10.93,0,0,1-2-4.74c.29-.22.58-.46.87-.7a12.63,12.63,0,0,0,4.18-8.23c0-.22,0-.45,0-.67A10.83,10.83,0,0,0,140.09,43a10.91,10.91,0,0,0-9.56-2.61,9.29,9.29,0,0,0-5.15,3.45c-.1.13-.4.6-.71,1.15h0a6.33,6.33,0,0,0-1.15,3.13.82.82,0,0,0,0,.31,1.46,1.46,0,0,1-.17,1.69c-.63.82-1,1.66-1.49,2.09s-.55.89-.12,1.25,1.16.41,1.19.56a8.85,8.85,0,0,1,.54,3.09c-.09,1.43-.22,2.82,2,2.93a22.62,22.62,0,0,1,2.69-.28,10.39,10.39,0,0,1,1.11,1.53c.38.65.74,1.44.58,1.53s-2.75-.1-4.29.75-2.31,3.33-3,5.1-.63,3.2-1,4.49a37.46,37.46,0,0,1-2.29,5.36,26.72,26.72,0,0,1-1.61,3.22c-.18,0-1.73-.52-2.6-.71a6,6,0,0,1-2.55-2c-1-1-1.12-1.29-1.12-1.52a5.73,5.73,0,0,0,.48-1.75,17.24,17.24,0,0,0,0-2.19,11.67,11.67,0,0,1-.11-2.73c.07-.51.17-1-.28-1.13s-.7.51-.85.83-.23.8-.31.8-.42-.55-1-.45-1,.77-1.27.75-.76-.2-1.09,0-.36.78-.52.86a5.32,5.32,0,0,0-.81.35c-.27.19-.29.5-.43.55s-.39,0-.72.49-.46,1,.68,3.06,1.94,2.18,2.8,3.39,3,4.29,4,5.57S114.82,88,115.8,89s2,2.3,3,2.3a4.78,4.78,0,0,0,2.93-1.62c.64-.75,2.47-4.65,2.73-4.68,0,0,5.92,16.17,8.33,22.5a2.73,2.73,0,0,0,.19.67l.22.4a5.28,5.28,0,0,1,.44,2,31.28,31.28,0,0,1-3.25,3.4c-1.53,1.54-6.68,7.11-8.78,11.2s-4.3,8.81-4.79,11.06-.57,3.8.15,4.7a27.73,27.73,0,0,0,4.38,3.51c1,.66,4.29,3.2,5.87,4.58s3.95,2.79,6.28,4.58a53.44,53.44,0,0,1,6.52,6,13.32,13.32,0,0,1,2.42,3.19c.32-.12,1.57,4.71,1.55,8.32h0a5.69,5.69,0,0,1-.31,2.64,3,3,0,0,1-.18.61l-.1.23h0c-.42,1-1,2.33-.37,3.13s1.72,1.36,2.63.73a18.17,18.17,0,0,0,2.79-3.11,9,9,0,0,0,1.58-3.68h0a11.62,11.62,0,0,1,1.53-6.14,7.07,7.07,0,0,0,2.5-4,.22.22,0,0,1,0-.08h0c.14-1.59-1.59-3.48-6.88-4.53a23.83,23.83,0,0,1-4.95-4.74c-1.25-1.81-5.32-7.86-6.74-9.48a13.34,13.34,0,0,0-4.45-3.52c-.5-.25-1-.46-1.47-.65h0c-1.53-1.18-1-1.82-1-1.82h0c6.29-3.94,10.76-11.12,10.76-11.12s2.74,5.08,3.87,6.76,4.27,5.82,5.4,7.95a25,25,0,0,0,3.86,5c1,1.14,2.83,2.31,3.5,3.06s2.6,3.83,3.59,5.3,3.39,5.2,5,7.58,3.95,5.72,4.86,8.14c.32.85.61,1.57.84,2.14h0l.34.84c.08.23.17.51.26.83v0l0,0a13,13,0,0,1,.34,1.79c0,.63,0,5.61-2.4,7.67h0l-.17.12h0a3.68,3.68,0,0,1-1,.43,7.54,7.54,0,0,0-1.62.67,1.66,1.66,0,0,0,1.08,2.66,8.75,8.75,0,0,0,5.85-1.06,18.51,18.51,0,0,0,2-1.27c1-1,1.48-3.45,1.69-5.35h0a4.75,4.75,0,0,1,1.88-3.68h0C181.05,173.8,182.31,170.64,177.45,168.53Zm-34-76c-.84-12,1.16-17.56,1.16-17.56.41-.15,3.64,1.58,5.44,2.4s4.17,1.94,4.25,2.07a18.68,18.68,0,0,1-1.12,2.62,26.68,26.68,0,0,1-3.05,5.65A46.77,46.77,0,0,1,145.88,92,5.64,5.64,0,0,1,143.42,92.53Z"/><path d="M178.52,174.62a10.24,10.24,0,0,0-2.76,6.12l-1.38-9.18Z"/><path d="M171,172.16s1,9.18-2.88,11.46l5.22-1,1-10.2Z"/></g></g></svg>