<svg xmlns="http://www.w3.org/2000/svg" viewBox="0 0 226.92 226.92"><defs><style>.cls-1{fill:#fff;stroke:#000;stroke-miterlimit:10;stroke-width:9px;}.cls-2{fill-rule:evenodd;}</style></defs><g id="Layer_2" data-name="Layer 2"><g id="Layer_22" data-name="Layer 22"><circle class="cls-1" cx="113.46" cy="113.46" r="108.96"/><path class="cls-2" d="M187.62,152.26a12.07,12.07,0,0,1,.44-3.54,20.1,20.1,0,0,0,.24-2.31,3.23,3.23,0,0,0-.18-1.06,2.11,2.11,0,0,0-2.2-1.77,8.5,8.5,0,0,0-2.18.36,23.85,23.85,0,0,1-4.26,1.32c-1.52.18-3,.39-4.57.54-21.51,1.47-33.82,6.19-33.83,6.19-11.11-8.06-21.27-16.74-21.32-17.39.38-.27.67-.43.93-.64,1-.81,2-1.56,2.83-2.46,1.7-1.74,3.39-3.5,5-5.38a54.18,54.18,0,0,0,5.19-7.77c.81-1.4,1.53-2.85,2.38-4.21a5.47,5.47,0,0,0,.39-5.13,28.31,28.31,0,0,0-1.8-3.86,63.32,63.32,0,0,0-5-7,.5.5,0,0,1-.16-.1c-.91-1.2-1.86-2.36-2.71-3.62s-1.59-2.66-2.56-3.84a4.09,4.09,0,0,1-.74-.82c-3.3-4.67-2.07-5.68-2.07-5.68l2.28-4.24c10.5-.21,10.13-8.35,10-9.46q0-.41-.12-.81a14.77,14.77,0,0,0-1.86-5.34,10.41,10.41,0,0,0-4.13-3.94,2.53,2.53,0,0,0-1.34-.5h-.1c-5.34-.67-8.09,1.87-8.09,1.87h0a.75.75,0,0,1-.57.26,8.81,8.81,0,0,1-3.35-.15c-1.12-.34-1.72.26-1.7,1.54,0,.3,0,.59,0,.94,0,0,0,1.24-2.94,2.93-.11.07-.24.12-.35.2a2.06,2.06,0,0,0-.85,2.24A5.86,5.86,0,0,0,109.5,72a5,5,0,0,1,.79,1.34,10.86,10.86,0,0,1,.59,4.77c-.1.81-.15,1.62-.23,2.42a21,21,0,0,1-1.23,4.57.83.83,0,0,1-.2.32h0a1.8,1.8,0,0,1-.19.2C107.66,87,98.92,96,95.26,102.38v0l-.38.62a6.78,6.78,0,0,1-.38.64l-.08.12a17.69,17.69,0,0,0-2.55,7.81c-.21,2.24-.49,4.47-.75,6.7a2.31,2.31,0,0,1-.1.4c-1-.55-2-1.06-3-1.6a89.07,89.07,0,0,0-9.41-4.5,25.76,25.76,0,0,0-8.08-1.91,13,13,0,0,0-2.77.29,2.45,2.45,0,0,0-1,.34s-1.52.48-7.11,26.4L57,148.4c-.61,1.27-1.2,2.52-1.81,3.76a5.86,5.86,0,0,1-2.43,2.61l-6.85,3.91c-.36.21-.74.39-1.1.61A3.62,3.62,0,0,1,43,160a2.72,2.72,0,0,0-.78.28c-.83.29-1.66.6-2.49.86s-1,.54-1.07,1.16a1.34,1.34,0,0,0,1,1.25,3.78,3.78,0,0,0,2.35-.06,1.87,1.87,0,0,1,1.48.07,2.94,2.94,0,0,0,1.68.22c1.54-.26,3.07-.62,4.59-1a2.25,2.25,0,0,1,1.36,0,18.81,18.81,0,0,0,8.43,1.07,7.14,7.14,0,0,0,2.28-.68,2.54,2.54,0,0,0,1.41-2.69c-.07-.78-.19-1.55-.19-2.33a14.27,14.27,0,0,1,.22-2c.22-1.45.44-2.9.67-4.35,0-.2.11-.39.17-.63,0,0,7.17-18.36,9.71-24.15a5.9,5.9,0,0,1,.49.39c2.75,2.53,5.46,5.1,8.25,7.59a52.47,52.47,0,0,0,8.31,6.29,28.54,28.54,0,0,0,9.36,3.78,2.48,2.48,0,0,0,.65.09,3.26,3.26,0,0,1,2.42.93c1.62,1.28,3.27,2.53,4.87,3.85a89.93,89.93,0,0,0,12.12,8.63,45.33,45.33,0,0,0,14.35,5.54c1.6.29,3.17.71,4.77.95a7,7,0,0,0,5.14-1.1c.84-.57,1.68-1.12,2.53-1.67a1.64,1.64,0,0,1,.66-.33s13.4-8.9,26.71-8.87c1.45.25,2.91.49,4.36.76a1.08,1.08,0,0,1,.53.38,26,26,0,0,1,3.37,6.4,3.72,3.72,0,0,1-2.3.78c-.29,0-.6,0-.9,0a1,1,0,0,0-.57,1.65,5.58,5.58,0,0,1,.46.73,1.21,1.21,0,0,0,1.43.75,2.37,2.37,0,0,1,.7.06c.24,0,.48.07.72.1a5,5,0,0,1,.79.09,1.4,1.4,0,0,0,1.2-.06,23.89,23.89,0,0,0,2.37-1.53,4.26,4.26,0,0,0,1.37-2.4,13.28,13.28,0,0,0,.11-5.18C187.9,154.52,187.77,153.39,187.62,152.26Zm-74.3-30.4c-.47-.7-1-1.37-1.46-2.06-.08-.11-.21-.26-.19-.37a13.5,13.5,0,0,1,.27-2.12,12.7,12.7,0,0,1,.82-2.15,8.4,8.4,0,0,1,1-1.85c1-1.26,2.06-2.49,3.17-3.65a16.74,16.74,0,0,0,3-3.72s.09,0,.2-.07a29.69,29.69,0,0,0,5.16,7.81c-.55.73-1.1,1.39-1.58,2.11-1.17,1.78-2.27,3.61-3.46,5.37-1,1.49-2.1,2.91-3.22,4.46A17.8,17.8,0,0,1,113.32,121.86Z"/></g></g></svg>