<svg xmlns="http://www.w3.org/2000/svg" viewBox="0 0 226.92 226.92"><defs><style>.cls-1{fill:#fff;stroke:#000;stroke-miterlimit:10;stroke-width:9px;}</style></defs><g id="Layer_2" data-name="Layer 2"><g id="Layer_22" data-name="Layer 22"><circle class="cls-1" cx="113.46" cy="113.46" r="108.96"/><rect x="64.92" y="74.21" width="20.27" height="90.59" rx="5.1"/><rect x="60.48" y="113.24" width="3.36" height="12.52" rx="1.2"/><rect x="49.72" y="88.87" width="9.52" height="60.67" rx="1.86"/><rect x="46.16" y="111.27" width="2.71" height="15.34" rx="0.78"/><path d="M40.86,112.86h3.53a.8.8,0,0,1,.8.8v10.48a.8.8,0,0,1-.8.8H41a1.56,1.56,0,0,1-1.56-1.56v-9.12A1.4,1.4,0,0,1,40.86,112.86Z"/><rect x="86.18" y="111.23" width="2.71" height="15.34" rx="0.78"/><rect x="90.74" y="111.07" width="53.23" height="15.07" rx="2.31"/><rect x="149.11" y="73.91" width="20.27" height="90.59" rx="5.1" transform="translate(318.48 238.4) rotate(-180)"/><rect x="170.45" y="112.94" width="3.36" height="12.52" rx="1.2" transform="translate(344.25 238.4) rotate(180)"/><rect x="175.05" y="88.57" width="9.52" height="60.67" rx="1.86" transform="translate(359.63 237.81) rotate(-180)"/><rect x="185.42" y="110.98" width="2.71" height="15.34" rx="0.78" transform="translate(373.55 237.29) rotate(180)"/><path d="M190.66,112.57H194a.8.8,0,0,1,.8.8v10.48a.8.8,0,0,1-.8.8H190.5a1.4,1.4,0,0,1-1.4-1.4v-9.12A1.56,1.56,0,0,1,190.66,112.57Z" transform="translate(383.94 237.21) rotate(-180)"/><rect x="145.4" y="110.94" width="2.71" height="15.34" rx="0.78" transform="translate(293.5 237.21) rotate(180)"/></g></g></svg>