<svg xmlns="http://www.w3.org/2000/svg" viewBox="0 0 226.92 226.92"><defs><style>.cls-1,.cls-2{fill:#fff;}.cls-1{stroke:#000;stroke-width:9px;}.cls-1,.cls-3{stroke-miterlimit:10;}.cls-3{fill:none;stroke:#fff;stroke-width:2px;}</style></defs><g id="Layer_2" data-name="Layer 2"><g id="Layer_22" data-name="Layer 22"><circle class="cls-1" cx="113.46" cy="113.46" r="108.96"/><polygon class="cls-2" points="49.36 74.42 49.36 69.73 57.08 69.73 79.23 70.34 79.23 76.44 59.01 81.48 49.36 74.42"/><polygon class="cls-2" points="49.31 72.51 49.31 70.23 50.19 71.26 49.75 72.92 49.31 72.51"/><ellipse cx="64.23" cy="69.53" rx="14.97" ry="7.07"/><ellipse cx="64.27" cy="161.55" rx="14.97" ry="7.07"/><path d="M49.3,72.36s3.48,7.39,20.33,5.4l.25-.05c1.05-.26,8.38-2.21,9.35-5.35v29.82s-14.24,7.15-28.87,0Z"/><path d="M65.74,78.07a26,26,0,0,0,8.06-1.63l-4.4,3.84Z"/><polygon points="49.3 161.55 49.3 72.36 58.78 90.27 79.23 102.18 79.23 161.88 49.3 161.55"/><ellipse class="cls-2" cx="64.33" cy="68.72" rx="4.86" ry="1.62"/><path class="cls-2" d="M56.91,68.72a29.14,29.14,0,0,0,7.22,1.11,18,18,0,0,0,3.59-.24,24.41,24.41,0,0,0,3.57-.87,10.48,10.48,0,0,1-3.4,1.63,12.38,12.38,0,0,1-3.78.48,14.8,14.8,0,0,1-3.76-.56A12.15,12.15,0,0,1,56.91,68.72Z"/><rect x="78.63" y="69.73" width="108.8" height="94.78" rx="3.23"/><path d="M73,167.28s2.53-2.77,24.13-2.77-6.72-19.88-6.72-19.88L73,155.31Z"/><path class="cls-3" d="M50.2,92.09s13.9,9.16,30.26-.62h107"/><path class="cls-3" d="M50.2,144.48s13.9,9.16,30.26-.62h107"/><polygon class="cls-2" points="50.76 143.66 49.3 142.76 49.3 145.18 51.5 146.3 50.76 143.66"/><polygon class="cls-2" points="50.76 91.27 49.3 90.37 49.3 92.79 51.5 93.91 50.76 91.27"/></g></g></svg>